<svg width="100" height="26" viewBox="0 0 100 26" fill="none" xmlns="http://www.w3.org/2000/svg">
<path d="M14.7973 13.2195C14.8081 12.3849 15.0298 11.5665 15.4418 10.8405C15.8538 10.1146 16.4428 9.50463 17.1539 9.06746C16.7021 8.4223 16.1062 7.89136 15.4134 7.51681C14.7205 7.14225 13.9499 6.93441 13.1627 6.90978C11.4835 6.73352 9.85552 7.91461 8.99981 7.91461C8.12754 7.91461 6.81004 6.92728 5.39131 6.95647C4.47364 6.98612 3.57929 7.25297 2.79541 7.73103C2.01154 8.20909 1.36486 8.88205 0.918393 9.68434C-1.01561 13.0328 0.426982 17.9538 2.27959 20.6604C3.20649 21.9858 4.28977 23.4662 5.70722 23.4137C7.09428 23.3562 7.61232 22.5292 9.28662 22.5292C10.9454 22.5292 11.4314 23.4137 12.8776 23.3803C14.366 23.3562 15.3038 22.0491 16.1981 20.7112C16.8641 19.7668 17.3766 18.7231 17.7166 17.6187C16.8518 17.253 16.1139 16.6408 15.5948 15.8585C15.0757 15.0762 14.7983 14.1584 14.7973 13.2195V13.2195Z" fill="white"/>
<path d="M12.0656 5.13002C12.8772 4.15582 13.277 2.90364 13.1802 1.6394C11.9403 1.76962 10.7951 2.36218 9.97259 3.29901C9.57045 3.75668 9.26245 4.28912 9.0662 4.86589C8.86996 5.44266 8.78931 6.05245 8.82888 6.6604C9.44902 6.66679 10.0625 6.53238 10.6232 6.26729C11.1838 6.0022 11.6771 5.61335 12.0656 5.13002Z" fill="white"/>
<path d="M32.5916 18.7027H27.8582L26.7214 22.0591H24.7166L29.2 9.64111H31.283L35.7664 22.0591H33.7273L32.5916 18.7027ZM28.3484 17.1538H32.1004L30.2508 11.7066H30.199L28.3484 17.1538Z" fill="white"/>
<path d="M45.449 17.5329C45.449 20.3464 43.9431 22.154 41.6707 22.154C41.095 22.1841 40.5225 22.0515 40.0187 21.7714C39.5149 21.4913 39.1002 21.0749 38.8221 20.57H38.7791V25.0544H36.9207V13.0056H38.7195V14.5114H38.7537C39.0446 14.009 39.4664 13.5948 39.974 13.3129C40.4816 13.0311 41.0562 12.8921 41.6365 12.9108C43.9343 12.9109 45.449 14.7273 45.449 17.5329ZM43.5388 17.5329C43.5388 15.6999 42.5916 14.4948 41.1463 14.4948C39.7263 14.4948 38.7713 15.7253 38.7713 17.5329C38.7713 19.3571 39.7263 20.5788 41.1463 20.5788C42.5916 20.5788 43.5388 19.3825 43.5388 17.5329Z" fill="white"/>
<path d="M55.4138 17.5329C55.4138 20.3464 53.908 22.154 51.6355 22.154C51.0599 22.1841 50.4874 22.0515 49.9836 21.7714C49.4798 21.4912 49.0651 21.0749 48.7869 20.57H48.7439V25.0544H46.8855V13.0056H48.6843V14.5114H48.7185C49.0095 14.009 49.4312 13.5948 49.9388 13.3129C50.4464 13.0311 51.021 12.8921 51.6013 12.9108C53.8992 12.9108 55.4138 14.7272 55.4138 17.5329ZM53.5037 17.5329C53.5037 15.6999 52.5564 14.4948 51.1111 14.4948C49.6912 14.4948 48.7361 15.7253 48.7361 17.5329C48.7361 19.3571 49.6912 20.5788 51.1111 20.5788C52.5564 20.5788 53.5037 19.3825 53.5037 17.5329H53.5037Z" fill="white"/>
<path d="M61.9998 18.5992C62.1375 19.8306 63.3338 20.6392 64.9685 20.6392C66.5349 20.6392 67.6619 19.8306 67.6619 18.7202C67.6619 17.7564 66.9822 17.1792 65.3728 16.7837L63.7635 16.396C61.4832 15.8452 60.4246 14.7788 60.4246 13.0483C60.4246 10.9058 62.2918 9.43408 64.9431 9.43408C67.5671 9.43408 69.366 10.9058 69.4265 13.0483H67.5505C67.4382 11.8091 66.4138 11.061 64.9168 11.061C63.4197 11.061 62.3953 11.8179 62.3953 12.9194C62.3953 13.7974 63.0496 14.314 64.6502 14.7094L66.0183 15.0454C68.5662 15.6479 69.6248 16.6714 69.6248 18.4878C69.6248 20.811 67.7742 22.2661 64.8308 22.2661C62.0769 22.2661 60.2175 20.8452 60.0974 18.5991L61.9998 18.5992Z" fill="white"/>
<path d="M73.6355 10.8628V13.0054H75.3572V14.4771H73.6355V19.4683C73.6355 20.2437 73.9802 20.605 74.7371 20.605C74.9414 20.6014 75.1455 20.5871 75.3484 20.562V22.0249C75.0081 22.0885 74.6623 22.1172 74.3162 22.1108C72.4832 22.1108 71.7683 21.4223 71.7683 19.6665V14.4771H70.4519V13.0054H71.7683V10.8628H73.6355Z" fill="white"/>
<path d="M76.3542 17.5327C76.3542 14.6841 78.032 12.894 80.6482 12.894C83.2732 12.894 84.9431 14.684 84.9431 17.5327C84.9431 20.3892 83.282 22.1714 80.6482 22.1714C78.0153 22.1714 76.3542 20.3892 76.3542 17.5327ZM83.0496 17.5327C83.0496 15.5786 82.154 14.4253 80.6482 14.4253C79.1423 14.4253 78.2478 15.5874 78.2478 17.5327C78.2478 19.4946 79.1423 20.6392 80.6482 20.6392C82.154 20.6392 83.0495 19.4946 83.0495 17.5327H83.0496Z" fill="white"/>
<path d="M86.4753 13.0055H88.2478V14.5465H88.2908C88.4107 14.0652 88.6927 13.6399 89.0893 13.342C89.4859 13.0441 89.9729 12.8918 90.4685 12.9108C90.6827 12.91 90.8963 12.9333 91.1053 12.9801V14.7184C90.8349 14.6358 90.5529 14.5978 90.2703 14.6061C90.0003 14.5951 89.7311 14.6427 89.4813 14.7456C89.2314 14.8485 89.0068 15.0042 88.8229 15.2021C88.6389 15.4 88.4999 15.6354 88.4155 15.892C88.3311 16.1487 88.3032 16.4206 88.3337 16.6891V22.0592H86.4753L86.4753 13.0055Z" fill="white"/>
<path d="M99.6736 19.3999C99.4236 21.0435 97.823 22.1714 95.7751 22.1714C93.1414 22.1714 91.5066 20.4067 91.5066 17.5757C91.5066 14.7358 93.1501 12.894 95.697 12.894C98.2019 12.894 99.7771 14.6147 99.7771 17.3599V17.9966H93.3826V18.1089C93.3531 18.4421 93.3948 18.7778 93.505 19.0936C93.6151 19.4094 93.7912 19.6982 94.0216 19.9408C94.252 20.1833 94.5313 20.3741 94.841 20.5004C95.1508 20.6267 95.4838 20.6856 95.8181 20.6733C96.2573 20.7145 96.698 20.6128 97.0747 20.3833C97.4514 20.1539 97.744 19.809 97.9089 19.3999L99.6736 19.3999ZM93.3914 16.6978H97.9177C97.9344 16.3982 97.889 16.0983 97.7843 15.8171C97.6796 15.5359 97.518 15.2794 97.3094 15.0636C97.1009 14.8479 96.85 14.6775 96.5726 14.5633C96.2951 14.4491 95.997 14.3935 95.697 14.3999C95.3944 14.3981 95.0944 14.4562 94.8144 14.571C94.5343 14.6857 94.2798 14.8548 94.0654 15.0684C93.851 15.2821 93.6811 15.536 93.5654 15.8157C93.4497 16.0953 93.3906 16.3951 93.3914 16.6978V16.6978Z" fill="white"/>
<path d="M28.1155 0.294368C28.5051 0.266409 28.8961 0.325269 29.2602 0.466702C29.6243 0.608135 29.9525 0.828616 30.221 1.11224C30.4896 1.39587 30.6919 1.73556 30.8133 2.10684C30.9347 2.47811 30.9722 2.87169 30.9231 3.25921C30.9231 5.16546 29.8928 6.26121 28.1155 6.26121H25.9602V0.294368H28.1155ZM26.887 5.41737H28.012C28.2904 5.43401 28.569 5.38836 28.8275 5.28375C29.0861 5.17913 29.318 5.01819 29.5065 4.81262C29.695 4.60705 29.8353 4.36205 29.9171 4.09543C29.999 3.82881 30.0204 3.54729 29.9797 3.27137C30.0174 2.99654 29.9939 2.71676 29.9108 2.4521C29.8276 2.18744 29.687 1.94443 29.499 1.7405C29.3109 1.53657 29.08 1.37676 28.823 1.27253C28.5659 1.16829 28.2889 1.12221 28.012 1.13758H26.887V5.41737Z" fill="white"/>
<path d="M31.97 4.00728C31.9417 3.71136 31.9755 3.41279 32.0694 3.13072C32.1632 2.84865 32.315 2.58931 32.5149 2.36933C32.7149 2.14935 32.9586 1.97358 33.2304 1.8533C33.5023 1.73303 33.7963 1.6709 34.0935 1.6709C34.3908 1.6709 34.6848 1.73303 34.9567 1.8533C35.2285 1.97358 35.4722 2.14935 35.6722 2.36933C35.8721 2.58931 36.0239 2.84865 36.1177 3.13072C36.2115 3.41279 36.2454 3.71136 36.2171 4.00728C36.2459 4.3035 36.2125 4.60248 36.1189 4.885C36.0253 5.16753 35.8736 5.42735 35.6736 5.64776C35.4736 5.86818 35.2297 6.04431 34.9576 6.16485C34.6855 6.28538 34.3912 6.34765 34.0935 6.34765C33.7959 6.34765 33.5016 6.28538 33.2295 6.16485C32.9573 6.04431 32.7134 5.86818 32.5135 5.64776C32.3135 5.42735 32.1618 5.16753 32.0682 4.885C31.9746 4.60248 31.9412 4.3035 31.97 4.00728ZM35.303 4.00728C35.303 3.03121 34.8645 2.46041 34.095 2.46041C33.3225 2.46041 32.888 3.03121 32.888 4.00729C32.888 4.99118 33.3226 5.55758 34.095 5.55758C34.8645 5.55757 35.303 4.98726 35.303 4.00728H35.303Z" fill="white"/>
<path d="M41.8625 6.26074H40.9407L40.01 2.94433H39.9397L39.0129 6.26074H38.0999L36.8586 1.75781H37.76L38.5667 5.19381H38.6331L39.5588 1.75781H40.4114L41.3372 5.19381H41.4075L42.2102 1.75781H43.0989L41.8625 6.26074Z" fill="white"/>
<path d="M44.1428 1.75786H44.9983V2.47319H45.0647C45.1774 2.21627 45.3674 2.00089 45.6082 1.85709C45.8491 1.71328 46.1288 1.64821 46.4085 1.67094C46.6276 1.65446 46.8475 1.6875 47.0521 1.7676C47.2567 1.84769 47.4407 1.9728 47.5904 2.13364C47.7401 2.29448 47.8516 2.48694 47.9168 2.69676C47.982 2.90658 47.9992 3.12839 47.967 3.34574V6.26074H47.0784V3.5689C47.0784 2.84527 46.7639 2.4854 46.1067 2.4854C45.9579 2.47847 45.8094 2.50379 45.6714 2.55962C45.5333 2.61545 45.409 2.70047 45.3068 2.80885C45.2047 2.91724 45.1272 3.04642 45.0797 3.18755C45.0322 3.32868 45.0157 3.47842 45.0315 3.62651V6.26079H44.1428L44.1428 1.75786Z" fill="white"/>
<path d="M49.3831 0H50.2717V6.26074H49.3831V0Z" fill="white"/>
<path d="M51.5071 4.00736C51.4788 3.71142 51.5127 3.41284 51.6065 3.13076C51.7004 2.84868 51.8522 2.58933 52.0521 2.36934C52.2521 2.14935 52.4958 1.97358 52.7677 1.85331C53.0396 1.73303 53.3336 1.6709 53.6309 1.6709C53.9282 1.6709 54.2222 1.73303 54.494 1.85331C54.7659 1.97358 55.0096 2.14935 55.2096 2.36934C55.4096 2.58933 55.5613 2.84868 55.6552 3.13076C55.7491 3.41284 55.7829 3.71142 55.7546 4.00736C55.7835 4.30359 55.75 4.60258 55.6564 4.8851C55.5627 5.16763 55.411 5.42744 55.211 5.64785C55.011 5.86826 54.7671 6.04438 54.495 6.16491C54.2228 6.28544 53.9285 6.34771 53.6309 6.34771C53.3332 6.34771 53.0389 6.28544 52.7668 6.16491C52.4946 6.04438 52.2507 5.86826 52.0507 5.64785C51.8507 5.42744 51.699 5.16763 51.6054 4.8851C51.5118 4.60258 51.4783 4.30359 51.5071 4.00736ZM54.8401 4.00736C54.8401 3.03129 54.4016 2.46049 53.6321 2.46049C52.8596 2.46049 52.4251 3.03129 52.4251 4.00737C52.4251 4.99126 52.8597 5.55766 53.6321 5.55766C54.4016 5.55765 54.8401 4.98734 54.8401 4.00736H54.8401Z" fill="white"/>
<path d="M56.6902 4.9873C56.6902 4.17675 57.2937 3.70947 58.365 3.64306L59.5847 3.57275V3.18408C59.5847 2.70849 59.2703 2.43994 58.6628 2.43994C58.1668 2.43994 57.823 2.62207 57.7244 2.94043H56.864C56.9548 2.16699 57.6824 1.6709 58.7039 1.6709C59.8328 1.6709 60.4695 2.2329 60.4695 3.18408V6.26074H59.614V5.62793H59.5437C59.401 5.85492 59.2006 6.03997 58.963 6.16418C58.7253 6.28839 58.459 6.34731 58.1912 6.33493C58.0021 6.35459 57.8111 6.33442 57.6303 6.27573C57.4495 6.21703 57.2831 6.1211 57.1417 5.99413C57.0003 5.86716 56.887 5.71197 56.8093 5.53855C56.7315 5.36514 56.6909 5.17735 56.6902 4.9873ZM59.5847 4.60253V4.22607L58.4851 4.29638C57.865 4.33788 57.5837 4.54882 57.5837 4.94579C57.5837 5.35106 57.9353 5.5869 58.4187 5.5869C58.5604 5.60124 58.7035 5.58694 58.8395 5.54484C58.9755 5.50275 59.1016 5.43374 59.2104 5.34189C59.3192 5.25005 59.4084 5.13727 59.4727 5.01025C59.537 4.88323 59.5751 4.74457 59.5847 4.60253Z" fill="white"/>
<path d="M61.6375 4.00734C61.6375 2.58449 62.3689 1.68312 63.5066 1.68312C63.788 1.67015 64.0673 1.73756 64.3118 1.87745C64.5564 2.01735 64.756 2.22395 64.8875 2.47312H64.9539V0H65.8425V6.26074H64.991V5.54931H64.9207C64.7791 5.7968 64.5724 6.00083 64.3232 6.13932C64.0739 6.2778 63.7915 6.34545 63.5066 6.33495C62.3611 6.335 61.6375 5.43361 61.6375 4.00734ZM62.5555 4.00734C62.5555 4.96242 63.0057 5.53713 63.7586 5.53713C64.5076 5.53713 64.9705 4.95413 64.9705 4.01125C64.9705 3.07277 64.5027 2.48146 63.7586 2.48146C63.0105 2.48146 62.5554 3.06007 62.5554 4.00734H62.5555Z" fill="white"/>
<path d="M69.5193 4.00728C69.491 3.71136 69.5249 3.41279 69.6187 3.13072C69.7125 2.84865 69.8643 2.58931 70.0642 2.36933C70.2642 2.14935 70.5079 1.97358 70.7797 1.8533C71.0516 1.73303 71.3456 1.6709 71.6429 1.6709C71.9401 1.6709 72.2341 1.73303 72.506 1.8533C72.7778 1.97358 73.0215 2.14935 73.2215 2.36933C73.4214 2.58931 73.5732 2.84865 73.667 3.13072C73.7608 3.41279 73.7947 3.71136 73.7664 4.00728C73.7952 4.3035 73.7618 4.60248 73.6682 4.885C73.5746 5.16753 73.4229 5.42735 73.2229 5.64776C73.023 5.86818 72.7791 6.04431 72.5069 6.16485C72.2348 6.28538 71.9405 6.34765 71.6429 6.34765C71.3452 6.34765 71.0509 6.28538 70.7788 6.16485C70.5067 6.04431 70.2628 5.86818 70.0628 5.64776C69.8628 5.42735 69.7111 5.16753 69.6175 4.885C69.5239 4.60248 69.4905 4.3035 69.5193 4.00728ZM72.8523 4.00728C72.8523 3.03121 72.4138 2.46041 71.6443 2.46041C70.8719 2.46041 70.4373 3.03121 70.4373 4.00729C70.4373 4.99118 70.8719 5.55758 71.6443 5.55758C72.4139 5.55757 72.8523 4.98726 72.8523 4.00728Z" fill="white"/>
<path d="M74.9587 1.75786H75.8142V2.47319H75.8806C75.9933 2.21627 76.1833 2.00089 76.4241 1.85709C76.665 1.71328 76.9448 1.64821 77.2244 1.67094C77.4435 1.65446 77.6635 1.6875 77.8681 1.7676C78.0727 1.84769 78.2566 1.9728 78.4063 2.13364C78.556 2.29448 78.6676 2.48694 78.7328 2.69676C78.798 2.90658 78.8151 3.12839 78.783 3.34574V6.26074H77.8943V3.5689C77.8943 2.84527 77.5798 2.4854 76.9226 2.4854C76.7739 2.47847 76.6254 2.50379 76.4873 2.55962C76.3492 2.61545 76.2249 2.70047 76.1228 2.80885C76.0206 2.91724 75.9432 3.04642 75.8956 3.18755C75.8481 3.32868 75.8317 3.47842 75.8474 3.62651V6.26079H74.9587V1.75786Z" fill="white"/>
<path d="M83.8044 0.636719V1.77832H84.78V2.52686H83.8044V4.84229C83.8044 5.31397 83.9988 5.52051 84.4412 5.52051C84.5544 5.52015 84.6676 5.5133 84.78 5.5V6.24023C84.6204 6.26878 84.4587 6.28397 84.2966 6.28564C83.3084 6.28564 82.9148 5.93798 82.9148 5.06982V2.52682H82.2V1.77828H82.9148V0.636719H83.8044Z" fill="white"/>
<path d="M85.9939 0H86.8748V2.48145H86.9451C87.0632 2.22213 87.2584 2.00554 87.5041 1.86119C87.7498 1.71684 88.034 1.65176 88.3181 1.67481C88.536 1.66295 88.7539 1.69934 88.9562 1.78138C89.1585 1.86342 89.3402 1.9891 89.4883 2.14943C89.6364 2.30977 89.7473 2.50082 89.8131 2.70896C89.8789 2.91709 89.8979 3.13718 89.8688 3.35352V6.26075H88.9793V3.57275C88.9793 2.85351 88.6443 2.48925 88.0164 2.48925C87.8637 2.47672 87.71 2.49772 87.5662 2.55077C87.4225 2.60383 87.292 2.68766 87.184 2.79639C87.076 2.90513 86.9931 3.03615 86.941 3.18029C86.889 3.32443 86.869 3.4782 86.8826 3.63085V6.26073H85.9939L85.9939 0Z" fill="white"/>
<path d="M95.0505 5.04499C94.9297 5.45653 94.6681 5.81252 94.3114 6.05067C93.9547 6.28882 93.5257 6.39397 93.0993 6.34772C92.8026 6.35556 92.5078 6.29873 92.2353 6.18121C91.9628 6.06368 91.7191 5.88826 91.5212 5.66712C91.3233 5.44598 91.1759 5.18442 91.0892 4.9006C91.0025 4.61678 90.9786 4.31749 91.0192 4.02351C90.9797 3.72863 91.004 3.4287 91.0905 3.14402C91.177 2.85935 91.3236 2.59658 91.5205 2.37351C91.7174 2.15044 91.9599 1.97227 92.2316 1.85106C92.5033 1.72985 92.7979 1.66844 93.0954 1.67097C94.3483 1.67097 95.1042 2.52697 95.1042 3.94097V4.25106H91.9245V4.30086C91.9106 4.46611 91.9313 4.63244 91.9855 4.78919C92.0396 4.94594 92.1259 5.08965 92.2388 5.2111C92.3517 5.33256 92.4887 5.42908 92.6411 5.49448C92.7935 5.55988 92.9579 5.59271 93.1237 5.59086C93.3363 5.61638 93.5516 5.57811 93.7424 5.4809C93.9331 5.38369 94.0907 5.23195 94.195 5.04496L95.0505 5.04499ZM91.9244 3.59382H94.1989C94.2101 3.4427 94.1895 3.2909 94.1386 3.14818C94.0876 3.00546 94.0074 2.87498 93.903 2.76512C93.7986 2.65527 93.6724 2.56846 93.5324 2.51028C93.3925 2.45211 93.242 2.42385 93.0905 2.42732C92.9368 2.42539 92.7842 2.45425 92.6419 2.51219C92.4995 2.57014 92.3702 2.656 92.2615 2.76471C92.1528 2.87343 92.067 3.00279 92.0091 3.14519C91.9513 3.28758 91.9225 3.44013 91.9245 3.59382H91.9244Z" fill="white"/>
</svg>
