<svg width="116" height="29" viewBox="0 0 116 29" fill="none" xmlns="http://www.w3.org/2000/svg">
<path d="M0.5 2.02197C0.2 2.32197 0 2.82197 0 3.42197V25.522C0 26.122 0.2 26.622 0.5 26.922L0.6 27.022L13 14.622V14.522V14.422L0.5 2.02197Z" fill="url(#paint0_linear_256_723)"/>
<path d="M17.1 18.8218L13 14.7218V14.5218V14.4218L17.1 10.3218L17.2 10.4218L22.1 13.2218C23.5 14.0218 23.5 15.3218 22.1 16.1218L17.1 18.8218Z" fill="url(#paint1_linear_256_723)"/>
<path d="M17.2 18.722L13 14.522L0.5 27.022C1 27.522 1.7 27.522 2.6 27.122L17.2 18.722Z" fill="url(#paint2_linear_256_723)"/>
<path d="M17.2 10.3221L2.6 2.02208C1.7 1.52208 1 1.62208 0.5 2.12208L13 14.5221L17.2 10.3221Z" fill="url(#paint3_linear_256_723)"/>
<path opacity="0.2" d="M17.1 18.6221L2.6 26.8221C1.8 27.3221 1.1 27.2221 0.6 26.8221L0.5 26.9221L0.6 27.0221C1.1 27.4221 1.8 27.5221 2.6 27.0221L17.1 18.6221Z" fill="white"/>
<path opacity="0.12" d="M0.500097 26.8219C0.200097 26.5219 0.100098 26.0219 0.100098 25.4219V25.5219C0.100098 26.1219 0.300098 26.6219 0.600098 26.9219V26.8219H0.500097Z" fill="white"/>
<path opacity="0.12" d="M22.1001 15.822L17.1001 18.622L17.2001 18.722L22.1001 15.922C22.8001 15.522 23.1001 15.022 23.1001 14.522C23.1001 15.022 22.7001 15.422 22.1001 15.822Z" fill="white"/>
<path opacity="0.25" d="M2.6001 2.12185L22.1001 13.2219C22.7001 13.6219 23.1001 14.0219 23.1001 14.5219C23.1001 14.0219 22.8001 13.5219 22.1001 13.1219L2.6001 2.02185C1.2001 1.22185 0.100098 1.92185 0.100098 3.52185V3.62185C0.100098 2.02185 1.2001 1.32185 2.6001 2.12185Z" fill="white"/>
<path d="M37.4501 4.3C37.4501 5.1 37.2501 5.8 36.7501 6.3C36.1501 6.9 35.4501 7.2 34.5501 7.2C33.6501 7.2 32.9501 6.9 32.3501 6.3C31.7501 5.7 31.4501 5 31.4501 4.1C31.4501 3.2 31.7501 2.5 32.3501 1.9C32.9501 1.3 33.6501 1 34.5501 1C34.9501 1 35.3501 1.1 35.7501 1.3C36.1501 1.5 36.4501 1.7 36.6501 2L36.1501 2.5C35.7501 2 35.2501 1.8 34.5501 1.8C33.9501 1.8 33.3501 2 32.9501 2.5C32.4501 2.9 32.2501 3.5 32.2501 4.2C32.2501 4.9 32.4501 5.5 32.9501 5.9C33.4501 6.3 33.9501 6.6 34.5501 6.6C35.2501 6.6 35.7501 6.4 36.2501 5.9C36.5501 5.6 36.7501 5.2 36.7501 4.7H34.5501V4H37.4501C37.4501 4 37.4501 4.2 37.4501 4.3Z" fill="white" stroke="white" stroke-width="0.2" stroke-miterlimit="10"/>
<path d="M42.0499 1.8001H39.3499V3.7001H41.8499V4.4001H39.3499V6.3001H42.0499V7.1001H38.5499V1.1001H42.0499V1.8001Z" fill="white" stroke="white" stroke-width="0.2" stroke-miterlimit="10"/>
<path d="M45.3501 7.1001H44.5501V1.8001H42.8501V1.1001H47.0501V1.8001H45.3501V7.1001Z" fill="white" stroke="white" stroke-width="0.2" stroke-miterlimit="10"/>
<path d="M49.9501 7.1001V1.1001H50.7501V7.1001H49.9501Z" fill="white" stroke="white" stroke-width="0.2" stroke-miterlimit="10"/>
<path d="M54.15 7.1001H53.35V1.8001H51.65V1.1001H55.75V1.8001H54.05V7.1001H54.15Z" fill="white" stroke="white" stroke-width="0.2" stroke-miterlimit="10"/>
<path d="M63.6501 6.3C63.0501 6.9 62.3501 7.2 61.4501 7.2C60.5501 7.2 59.8501 6.9 59.2501 6.3C58.6501 5.7 58.3501 5 58.3501 4.1C58.3501 3.2 58.6501 2.5 59.2501 1.9C59.8501 1.3 60.5501 1 61.4501 1C62.3501 1 63.0501 1.3 63.6501 1.9C64.2501 2.5 64.5501 3.2 64.5501 4.1C64.5501 5 64.2501 5.7 63.6501 6.3ZM59.8501 5.8C60.2501 6.2 60.8501 6.5 61.4501 6.5C62.0501 6.5 62.6501 6.3 63.0501 5.8C63.4501 5.4 63.7501 4.8 63.7501 4.1C63.7501 3.4 63.5501 2.8 63.0501 2.4C62.6501 2 62.0501 1.7 61.4501 1.7C60.8501 1.7 60.2501 1.9 59.8501 2.4C59.4501 2.8 59.1501 3.4 59.1501 4.1C59.1501 4.8 59.3501 5.4 59.8501 5.8Z" fill="white" stroke="white" stroke-width="0.2" stroke-miterlimit="10"/>
<path d="M65.65 7.1001V1.1001H66.55L69.45 5.8001V4.6001V1.1001H70.25V7.1001H69.45L66.35 2.2001V3.4001V7.1001H65.65Z" fill="white" stroke="white" stroke-width="0.2" stroke-miterlimit="10"/>
<path d="M58.15 15.9002C55.75 15.9002 53.85 17.7002 53.85 20.2002C53.85 22.6002 55.75 24.5002 58.15 24.5002C60.55 24.5002 62.45 22.7002 62.45 20.2002C62.45 17.6002 60.55 15.9002 58.15 15.9002ZM58.15 22.7002C56.85 22.7002 55.75 21.6002 55.75 20.1002C55.75 18.6002 56.85 17.5002 58.15 17.5002C59.45 17.5002 60.55 18.5002 60.55 20.1002C60.55 21.6002 59.45 22.7002 58.15 22.7002ZM48.85 15.9002C46.45 15.9002 44.55 17.7002 44.55 20.2002C44.55 22.6002 46.45 24.5002 48.85 24.5002C51.25 24.5002 53.15 22.7002 53.15 20.2002C53.15 17.6002 51.25 15.9002 48.85 15.9002ZM48.85 22.7002C47.55 22.7002 46.45 21.6002 46.45 20.1002C46.45 18.6002 47.55 17.5002 48.85 17.5002C50.15 17.5002 51.25 18.5002 51.25 20.1002C51.25 21.6002 50.15 22.7002 48.85 22.7002ZM37.75 17.2002V19.0002H42.05C41.95 20.0002 41.55 20.8002 41.05 21.3002C40.45 21.9002 39.45 22.6002 37.75 22.6002C35.05 22.6002 33.05 20.5002 33.05 17.8002C33.05 15.1002 35.15 13.0002 37.75 13.0002C39.15 13.0002 40.25 13.6002 41.05 14.3002L42.35 13.0002C41.25 12.0002 39.85 11.2002 37.85 11.2002C34.25 11.2002 31.15 14.2002 31.15 17.8002C31.15 21.4002 34.25 24.4002 37.85 24.4002C39.85 24.4002 41.25 23.8002 42.45 22.5002C43.65 21.3002 44.05 19.6002 44.05 18.3002C44.05 17.9002 44.05 17.5002 43.95 17.2002H37.75ZM83.15 18.6002C82.75 17.6002 81.75 15.9002 79.55 15.9002C77.35 15.9002 75.55 17.6002 75.55 20.2002C75.55 22.6002 77.35 24.5002 79.75 24.5002C81.65 24.5002 82.85 23.3002 83.25 22.6002L81.85 21.6002C81.35 22.3002 80.75 22.8002 79.75 22.8002C78.75 22.8002 78.15 22.4002 77.65 21.5002L83.35 19.1002L83.15 18.6002ZM77.35 20.0002C77.35 18.4002 78.65 17.5002 79.55 17.5002C80.25 17.5002 80.95 17.9002 81.15 18.4002L77.35 20.0002ZM72.65 24.1002H74.55V11.6002H72.65V24.1002ZM69.65 16.8002C69.15 16.3002 68.35 15.8002 67.35 15.8002C65.25 15.8002 63.25 17.7002 63.25 20.1002C63.25 22.5002 65.15 24.3002 67.35 24.3002C68.35 24.3002 69.15 23.8002 69.55 23.3002H69.65V23.9002C69.65 25.5002 68.75 26.4002 67.35 26.4002C66.25 26.4002 65.45 25.6002 65.25 24.9002L63.65 25.6002C64.15 26.7002 65.35 28.1002 67.45 28.1002C69.65 28.1002 71.45 26.8002 71.45 23.7002V16.1002H69.65V16.8002ZM67.45 22.7002C66.15 22.7002 65.05 21.6002 65.05 20.1002C65.05 18.6002 66.15 17.5002 67.45 17.5002C68.75 17.5002 69.75 18.6002 69.75 20.1002C69.75 21.6002 68.75 22.7002 67.45 22.7002ZM91.85 11.6002H87.35V24.1002H89.25V19.4002H91.85C93.95 19.4002 95.95 17.9002 95.95 15.5002C95.95 13.1002 93.95 11.6002 91.85 11.6002ZM91.95 17.6002H89.25V13.3002H91.95C93.35 13.3002 94.15 14.5002 94.15 15.4002C94.05 16.5002 93.25 17.6002 91.95 17.6002ZM103.45 15.8002C102.05 15.8002 100.65 16.4002 100.15 17.7002L101.85 18.4002C102.25 17.7002 102.85 17.5002 103.55 17.5002C104.55 17.5002 105.45 18.1002 105.55 19.1002V19.2002C105.25 19.0002 104.45 18.7002 103.65 18.7002C101.85 18.7002 100.05 19.7002 100.05 21.5002C100.05 23.2002 101.55 24.3002 103.15 24.3002C104.45 24.3002 105.05 23.7002 105.55 23.1002H105.65V24.1002H107.45V19.3002C107.25 17.1002 105.55 15.8002 103.45 15.8002ZM103.25 22.7002C102.65 22.7002 101.75 22.4002 101.75 21.6002C101.75 20.6002 102.85 20.3002 103.75 20.3002C104.55 20.3002 104.95 20.5002 105.45 20.7002C105.25 21.9002 104.25 22.7002 103.25 22.7002ZM113.75 16.1002L111.65 21.5002H111.55L109.35 16.1002H107.35L110.65 23.7002L108.75 27.9002H110.65L115.75 16.1002H113.75ZM96.95 24.1002H98.85V11.6002H96.95V24.1002Z" fill="white"/>
<defs>
<linearGradient id="paint0_linear_256_723" x1="11.8997" y1="3.23167" x2="-4.8827" y2="20.0141" gradientUnits="userSpaceOnUse">
<stop stop-color="#00A0FF"/>
<stop offset="0.00657445" stop-color="#00A1FF"/>
<stop offset="0.2601" stop-color="#00BEFF"/>
<stop offset="0.5122" stop-color="#00D2FF"/>
<stop offset="0.7604" stop-color="#00DFFF"/>
<stop offset="1" stop-color="#00E3FF"/>
</linearGradient>
<linearGradient id="paint1_linear_256_723" x1="23.9344" y1="14.5232" x2="-0.262498" y2="14.5232" gradientUnits="userSpaceOnUse">
<stop stop-color="#FFE000"/>
<stop offset="0.4087" stop-color="#FFBD00"/>
<stop offset="0.7754" stop-color="#FFA500"/>
<stop offset="1" stop-color="#FF9C00"/>
</linearGradient>
<linearGradient id="paint2_linear_256_723" x1="14.927" y1="16.8181" x2="-7.8313" y2="39.5764" gradientUnits="userSpaceOnUse">
<stop stop-color="#FF3A44"/>
<stop offset="1" stop-color="#C31162"/>
</linearGradient>
<linearGradient id="paint3_linear_256_723" x1="-2.6027" y1="-5.30172" x2="7.5599" y2="4.86078" gradientUnits="userSpaceOnUse">
<stop stop-color="#32A071"/>
<stop offset="0.0685" stop-color="#2DA771"/>
<stop offset="0.4762" stop-color="#15CF74"/>
<stop offset="0.8009" stop-color="#06E775"/>
<stop offset="1" stop-color="#00F076"/>
</linearGradient>
</defs>
</svg>
